<svg width="18" height="19" viewBox="0 0 18 19" fill="none" xmlns="http://www.w3.org/2000/svg">
<path d="M18 8.83189V17.5C17.9998 17.7719 17.9261 18.0386 17.7868 18.272C17.6474 18.5054 17.4476 18.6968 17.2084 18.8259C16.9916 18.9432 16.7485 19.0031 16.502 18.9999H11.9967C11.7978 18.9999 11.607 18.9209 11.4664 18.7803C11.3257 18.6396 11.2467 18.4488 11.2467 18.2499V13.7493C11.2467 13.5504 11.1677 13.3596 11.027 13.2189C10.8864 13.0783 10.6956 12.9993 10.4967 12.9993H7.4967C7.29778 12.9993 7.10702 13.0783 6.96637 13.2189C6.82571 13.3596 6.7467 13.5504 6.7467 13.7493V18.2499C6.7467 18.4488 6.66768 18.6396 6.52703 18.7803C6.38637 18.9209 6.19561 18.9999 5.9967 18.9999H1.50017C1.28751 19.0005 1.0772 18.9556 0.883324 18.8682C0.689445 18.7808 0.516477 18.653 0.37601 18.4934C0.129429 18.2082 -0.00431803 17.8427 -2.16886e-05 17.4657V8.8318C0.000141747 8.62281 0.0438891 8.41615 0.128426 8.22503C0.212964 8.0339 0.336433 7.86251 0.490947 7.7218L7.99029 0.903078C8.26576 0.650753 8.62576 0.510777 8.99933 0.510742C9.3729 0.510707 9.73293 0.650617 10.0084 0.90289L17.5091 7.72189C17.6636 7.86263 17.787 8.03403 17.8715 8.22515C17.9561 8.41627 17.9998 8.62292 18 8.83189Z" fill="#888B97"/>
</svg>
