<svg width="25" height="24" viewBox="0 0 25 24" fill="none" xmlns="http://www.w3.org/2000/svg">
<path d="M23.0391 11.9553H1.96091C1.13081 11.9553 0.455322 12.6308 0.455322 13.4609C0.455322 14.291 1.13081 14.9665 1.96091 14.9665H23.0391C23.8692 14.9665 24.5447 14.291 24.5447 13.4609C24.5447 12.6308 23.8692 11.9553 23.0391 11.9553Z" fill="#888B97"/>
<path d="M23.1775 13.9819C22.9055 13.9056 22.6325 14.0602 22.5572 14.3272L22.5181 14.4647H2.48276L2.44263 14.3272C2.36735 14.0602 2.09234 13.9076 1.82233 13.9819C1.55532 14.0581 1.40175 14.3362 1.47807 14.6022L2.86118 19.4441C3.28975 20.9447 4.67894 21.9926 6.23872 21.9926H18.7601C20.3209 21.9926 21.7091 20.9447 22.1377 19.4441L23.5208 14.6022C23.5981 14.3362 23.4435 14.0581 23.1775 13.9819ZM6.23971 19.9851C5.57123 19.9851 4.97502 19.5364 4.79233 18.893L4.14093 16.6106C4.06466 16.3436 4.21922 16.0665 4.48519 15.9903C4.75417 15.914 5.03021 16.0695 5.10549 16.3356L5.75689 18.618C5.81913 18.8318 6.01684 18.9824 6.23966 18.9824C6.51669 18.9824 6.74154 19.2072 6.74154 19.4843C6.74159 19.7613 6.51674 19.9851 6.23971 19.9851Z" fill="#888B97"/>
<path d="M7.20341 21.0411C6.95551 20.9197 6.65538 21.017 6.5299 21.266L5.52619 23.2734C5.40273 23.5213 5.50309 23.8224 5.75104 23.9469C5.82429 23.9831 5.90061 24.0001 5.97589 24.0001C6.15957 24.0001 6.33624 23.8987 6.42455 23.7221L7.42826 21.7147C7.55172 21.4667 7.45132 21.1655 7.20341 21.0411Z" fill="#888B97"/>
<path d="M19.4739 23.2743L18.4702 21.2668C18.3458 21.0179 18.0446 20.9185 17.7967 21.042C17.5488 21.1664 17.4484 21.4676 17.5718 21.7155L18.5755 23.723C18.6639 23.8986 18.8405 24 19.0242 24C19.0995 24 19.1758 23.9829 19.2491 23.9478C19.497 23.8233 19.5974 23.5222 19.4739 23.2743Z" fill="#888B97"/>
<path d="M20.615 0C20.1031 0 19.6213 0.199725 19.259 0.5621L17.6661 2.15501C17.4704 2.35073 17.4704 2.66893 17.6661 2.86465C17.8618 3.06038 18.18 3.06038 18.3757 2.86465L19.9686 1.27274C20.1402 1.10011 20.3701 1.00474 20.62 1.00474C21.1238 1.00474 21.5334 1.41426 21.5334 1.91811V12.4572C21.5334 12.7342 21.7582 12.9591 22.0352 12.9591C22.3123 12.9591 22.5371 12.7342 22.5381 12.4562V1.91713C22.5381 0.860206 21.6789 0 20.615 0Z" fill="#888B97"/>
<path d="M18.8776 2.65681L17.8739 1.65311C17.7594 1.53868 17.5998 1.48547 17.4372 1.51257L14.9279 1.92411C14.7433 1.95422 14.5917 2.08469 14.5325 2.26136C14.4733 2.43803 14.5184 2.63475 14.6489 2.76822L17.6601 5.86973C17.7555 5.9691 17.8869 6.02231 18.0194 6.02231C18.0666 6.02231 18.1148 6.0153 18.1619 6.00123C18.3406 5.94905 18.4761 5.80151 18.5122 5.61881L19.0141 3.10952C19.0472 2.94588 18.996 2.77622 18.8776 2.65681Z" fill="#888B97"/>
<path d="M12.3523 6.08063C12.1566 5.88491 11.8384 5.88491 11.6427 6.08063L10.639 7.08434C10.4433 7.28007 10.4433 7.59826 10.639 7.79399C10.7374 7.89133 10.8658 7.94055 10.9943 7.94055C11.1228 7.94055 11.2512 7.89138 11.3486 7.79399L12.3523 6.79028C12.5481 6.59451 12.5481 6.27636 12.3523 6.08063Z" fill="#888B97"/>
<path d="M14.3599 8.08796C14.1642 7.89223 13.846 7.89223 13.6503 8.08796L12.6466 9.09166C12.4508 9.28739 12.4508 9.60559 12.6466 9.80131C12.7449 9.89866 12.8734 9.94787 13.0019 9.94787C13.1304 9.94787 13.2588 9.89871 13.3562 9.80131L14.3599 8.79761C14.5556 8.60188 14.5556 8.28368 14.3599 8.08796Z" fill="#888B97"/>
<path d="M15.3636 5.07673C15.1678 4.881 14.8496 4.881 14.6539 5.07673L13.6502 6.08043C13.4545 6.27616 13.4545 6.59436 13.6502 6.79008C13.7486 6.88743 13.877 6.93664 14.0055 6.93664C14.134 6.93664 14.2625 6.88748 14.3599 6.79008L15.3636 5.78637C15.5593 5.59065 15.5593 5.27245 15.3636 5.07673Z" fill="#888B97"/>
</svg>
